<svg width="35" height="35" viewBox="0 0 35 35" fill="none" xmlns="http://www.w3.org/2000/svg">
<g clip-path="url(#clip0_47_33)">
<path fill-rule="evenodd" clip-rule="evenodd" d="M28.8415 6.46037C29.2019 6.30869 29.5964 6.25637 29.9838 6.30887C30.3713 6.36137 30.7376 6.51676 31.0446 6.75887C31.3516 7.00097 31.5882 7.32095 31.7296 7.68549C31.871 8.05002 31.9121 8.4458 31.8486 8.83162L28.5411 28.8939C28.2203 30.8291 26.0969 31.9389 24.3221 30.975C22.8376 30.1685 20.6326 28.926 18.6492 27.6295C17.6576 26.9806 14.6199 24.9025 14.9932 23.4237C15.314 22.1593 20.4182 17.4081 23.3349 14.5833C24.4796 13.4735 23.9576 12.8333 22.6057 13.8541C19.2486 16.3887 13.8586 20.2431 12.0765 21.3281C10.5044 22.2847 9.68486 22.4481 8.70486 22.2847C6.91694 21.9872 5.25881 21.5264 3.90548 20.965C2.07673 20.2066 2.16569 17.6924 3.90402 16.9604L28.8415 6.46037Z" fill="#611922"/>
</g>
<defs>
<clipPath id="clip0_47_33">
<rect width="35" height="35" fill="white"/>
</clipPath>
</defs>
</svg>
