<svg width="35" height="35" viewBox="0 0 35 35" fill="none" xmlns="http://www.w3.org/2000/svg">
<path d="M13.8381 0.00437518L14.9013 0H20.0987L21.1633 0.00437518L22.4963 0.0189591L23.1277 0.0291679L23.7373 0.0452102L24.325 0.0656277L24.8908 0.088962L25.4363 0.119588L25.9613 0.156048L26.4644 0.1998L26.95 0.247927C29.4875 0.533772 31.2273 1.1463 32.5398 2.45885C33.8523 3.77141 34.4648 5.50981 34.7506 8.04888L34.8002 8.53452L34.8425 9.03913L34.879 9.56415L34.9081 10.1081L34.9446 10.9657L34.9621 11.5636L34.981 12.5028L34.9942 13.8372L35 15.2665L34.9985 20.0981L34.9942 21.1628L34.9796 22.4957L34.9694 23.1272L34.9533 23.7368L34.9329 24.3246L34.9096 24.8904L34.879 25.4359L34.8425 25.9609L34.7988 26.464L34.7506 26.9497C34.4648 29.4873 33.8523 31.2271 32.5398 32.5397C31.2273 33.8522 29.489 34.4648 26.95 34.7506L26.4644 34.8002L25.9598 34.8425L25.4348 34.879L24.8908 34.9081L24.0333 34.9446L23.4354 34.9621L22.4963 34.981L21.1619 34.9942L19.7327 35L14.9013 34.9985L13.8367 34.9942L12.5038 34.9796L11.8723 34.9694L11.2627 34.9533L10.675 34.9329L10.1092 34.9096L9.56375 34.879L9.03875 34.8425L8.53563 34.7987L8.05 34.7506C5.5125 34.4648 3.77271 33.8522 2.46021 32.5397C1.14771 31.2271 0.535208 29.4887 0.249375 26.9497L0.199792 26.464L0.1575 25.9594L0.121042 25.4344L0.091875 24.8904L0.0554167 24.0329L0.0379167 23.4349L0.0189583 22.4957L0.00583333 21.1613L0 19.7321L0.00145833 14.9004L0.00583333 13.8358L0.0204167 12.5028L0.030625 11.8713L0.0466667 11.2617L0.0670833 10.674L0.0904167 10.1081L0.121042 9.56269L0.1575 9.03767L0.20125 8.53452L0.249375 8.04888C0.535208 5.51127 1.14771 3.77141 2.46021 2.45885C3.77271 1.1463 5.51104 0.533772 8.05 0.247927L8.53563 0.198342L9.04021 0.156048L9.56521 0.119588L10.1092 0.0904204L10.9667 0.0539606L11.5646 0.0364599L12.5038 0.0175007L13.8381 0.00437518ZM9.90208 10.6448H5.90625C6.09583 19.7452 10.6458 25.2142 18.6229 25.2142H19.075V20.0077C22.0063 20.2994 24.2229 22.4432 25.1125 25.2142H29.2542C28.1167 21.0723 25.1271 18.7827 23.2604 17.9076C25.1271 16.8284 27.7521 14.2033 28.3792 10.6448H24.6167C23.8 13.5324 21.3792 16.1575 19.075 16.4055V10.6448H15.3125V20.7369C12.9792 20.1535 10.0333 17.3243 9.90208 10.6448Z" fill="#611922"/>
</svg>
