<svg width="35" height="35" viewBox="0 0 35 35" fill="none" xmlns="http://www.w3.org/2000/svg">
<path d="M29.7686 5.0751C28.164 3.45946 26.254 2.17878 24.1497 1.30753C22.0454 0.436285 19.7887 -0.00813711 17.5109 0.000112785C14.4659 0.00308226 11.4751 0.805537 8.83801 2.32712C6.20094 3.84869 4.01017 6.03598 2.48511 8.66994C0.960045 11.3039 0.154217 14.2921 0.148324 17.3352C0.142431 20.3783 0.93668 23.3696 2.45153 26.0094L0 35L9.19324 32.5938C11.7318 34.0052 14.5842 34.7573 17.4891 34.7812C22.1068 34.7814 26.5377 32.9587 29.8173 29.7099C33.0969 26.4611 34.9596 22.0491 35 17.4344C34.9846 15.1317 34.5146 12.8546 33.6168 10.7337C32.7191 8.61284 31.4114 6.68989 29.7686 5.0751ZM17.5109 31.7844C14.923 31.7861 12.3824 31.0909 10.1563 29.7719L9.63102 29.4438L4.18074 30.8875L5.62539 25.5719L5.27517 25.025C3.41299 22.0209 2.71801 18.4385 3.32188 14.9565C3.92574 11.4745 5.78652 8.33482 8.5517 6.13215C11.3169 3.92948 14.7944 2.81686 18.3255 3.00504C21.8566 3.19322 25.196 4.66915 27.7111 7.15321C30.4603 9.83988 32.0341 13.5045 32.0888 17.3469C32.0542 21.188 30.503 24.86 27.7729 27.5638C25.0428 30.2677 21.3546 31.7845 17.5109 31.7844ZM25.4128 20.9782C24.975 20.7594 22.8518 19.7094 22.4578 19.5782C22.0638 19.4469 21.7573 19.3594 21.4728 19.7969C21.0446 20.3834 20.5842 20.9457 20.0938 21.4813C19.853 21.7875 19.5904 21.8094 19.1526 21.4813C16.6567 20.4956 14.5772 18.68 13.2645 16.3407C12.8049 15.5751 13.7023 15.6188 14.5341 13.9782C14.5955 13.8599 14.6275 13.7286 14.6275 13.5954C14.6275 13.4621 14.5955 13.3308 14.5341 13.2126C14.5341 12.9938 13.5491 10.8501 13.1989 9.99695C12.8487 9.14383 12.4984 9.27508 12.2139 9.25321H11.3602C11.139 9.2566 10.9211 9.30714 10.7211 9.40145C10.521 9.49576 10.3434 9.63167 10.2001 9.80008C9.70899 10.2773 9.32591 10.8543 9.07671 11.492C8.82751 12.1297 8.71797 12.8134 8.75547 13.4969C8.89272 15.1334 9.50939 16.6931 10.5285 17.9813C12.3938 20.772 14.9501 23.0328 17.9487 24.5438C19.5214 25.4613 21.3491 25.845 23.1582 25.6375C23.7607 25.518 24.3312 25.2732 24.8327 24.919C25.3343 24.5647 25.7557 24.1089 26.0694 23.5813C26.3601 22.9374 26.4516 22.2213 26.3321 21.525C26.1351 21.3063 25.8505 21.1969 25.4128 20.9782Z" fill="#611922"/>
</svg>
