<svg width="42" height="35" viewBox="0 0 42 35" fill="none" xmlns="http://www.w3.org/2000/svg">
<path d="M4.2 35C3.045 35 2.0566 34.572 1.2348 33.7159C0.413 32.8599 0.0014 31.8296 0 30.625V4.375C0 3.17187 0.4116 2.14229 1.2348 1.28625C2.058 0.430208 3.0464 0.00145833 4.2 0H37.8C38.955 0 39.9441 0.42875 40.7673 1.28625C41.5905 2.14375 42.0014 3.17333 42 4.375V30.625C42 31.8281 41.5891 32.8584 40.7673 33.7159C39.9455 34.5734 38.9564 35.0015 37.8 35H4.2ZM21 19.6875L37.8 8.75V4.375L21 15.3125L4.2 4.375V8.75L21 19.6875Z" fill="#611922"/>
</svg>
